<svg width="29" height="34" viewBox="0 0 29 34" fill="none" xmlns="http://www.w3.org/2000/svg">
<path d="M6.99993 13H17.0001C17.5501 13 18 12.5501 18 12.0002C18 11.4502 17.5501 11.0003 17.0001 11.0003L6.99993 11C6.4499 11 6 11.4499 6 11.9998C5.99965 12.5501 6.44993 13 6.99993 13V13Z" fill="#8FFFF1"/>
<path d="M6.99993 18H17.0001C17.5501 18 18 17.5501 18 17.0002C18 16.4502 17.5501 16.0003 17.0001 16.0003L6.99993 16C6.4499 16 6 16.4499 6 16.9998C5.99965 17.5501 6.44993 18 6.99993 18V18Z" fill="#8FFFF1"/>
<path d="M6.99993 23H17.0001C17.5501 23 18 22.5501 18 22.0002C18 21.4502 17.5501 21.0003 17.0001 21.0003L6.99993 21C6.4499 21 6 21.4499 6 21.9998C5.99965 22.5501 6.44993 23 6.99993 23V23Z" fill="#8FFFF1"/>
<path d="M6.99993 28H17.0001C17.5501 28 18 27.5501 18 27.0002C18 26.4502 17.5501 26.0003 17.0001 26.0003L6.99993 26C6.4499 26 6 26.4499 6 26.9998C5.99965 27.5501 6.44993 28 6.99993 28V28Z" fill="#8FFFF1"/>
<path d="M2.54502 34H21.455C22.8598 34 24 32.8598 24 31.455V7.54501C24 6.14018 22.8598 5 21.455 5H2.54502C1.14019 5 0 6.14018 0 7.54501V31.455C0 32.8598 1.14019 34 2.54502 34ZM2.00023 7.54448C2.00023 7.24453 2.24507 6.99934 2.54537 6.99934H21.4553C21.7553 6.99934 22.0005 7.24418 22.0005 7.54448V31.4544C22.0005 31.7544 21.7556 31.9996 21.4553 31.9996H2.54447C2.24453 31.9996 1.99934 31.7547 1.99934 31.4544L2.00023 7.54448Z" fill="#8FFFF1"/>
<path d="M26.455 4.4278e-05H7.54502C6.14019 4.4278e-05 5 1.14023 5 2.54506C5 3.09508 5.44992 3.54498 5.99992 3.54498C6.54994 3.54498 6.99984 3.09506 6.99984 2.54506C6.99984 2.24511 7.24468 1.99992 7.54498 1.99992H26.455C26.7549 1.99992 27.0001 2.24476 27.0001 2.54506V26.455C27.0001 26.755 26.7553 27.0002 26.455 27.0002C25.905 27.0002 25.4551 27.4501 25.4551 28.0001C25.4551 28.5501 25.905 29 26.455 29C27.8598 29 29 27.8598 29 26.455V2.54502C29 1.14019 27.8598 0 26.455 0L26.455 4.4278e-05Z" fill="#8FFFF1"/>
</svg>
