<svg width="195" height="195" viewBox="0 0 195 195" fill="none" xmlns="http://www.w3.org/2000/svg">
<path d="M146.575 110.094C143.163 113.425 141.212 118.219 141.7 123.337C142.431 132.112 150.475 138.531 159.25 138.531H174.688V148.2C174.688 165.019 160.956 178.75 144.138 178.75H61.9938C64.5125 176.638 66.7062 174.037 68.4125 171.112C71.4187 166.237 73.125 160.469 73.125 154.375C73.125 136.419 58.5813 121.875 40.625 121.875C32.9875 121.875 25.9187 124.556 20.3125 129.025V93.5188C20.3125 76.7001 34.0437 62.9688 50.8625 62.9688H144.138C160.956 62.9688 174.688 76.7001 174.688 93.5188V105.219H158.275C153.725 105.219 149.581 107.006 146.575 110.094Z" stroke="#F474E1" stroke-width="3" stroke-linecap="round" stroke-linejoin="round"/>
<path d="M20.3125 100.831V63.7003C20.3125 54.0315 26.2438 45.4187 35.2625 42.0062L99.775 17.6312C109.85 13.8124 120.656 21.2876 120.656 32.0939V62.9688" stroke="#F474E1" stroke-width="3" stroke-linecap="round" stroke-linejoin="round"/>
<path d="M183.291 113.507V130.245C183.291 134.714 179.716 138.37 175.166 138.533H159.241C150.466 138.533 142.423 132.114 141.691 123.339C141.204 118.22 143.154 113.426 146.566 110.095C149.573 107.008 153.716 105.22 158.266 105.22H175.166C179.716 105.383 183.291 109.039 183.291 113.507Z" stroke="#F474E1" stroke-width="3" stroke-linecap="round" stroke-linejoin="round"/>
<path d="M56.875 97.5H113.75" stroke="#F474E1" stroke-width="3" stroke-linecap="round" stroke-linejoin="round"/>
<path d="M73.125 154.375C73.125 160.469 71.4187 166.237 68.4125 171.112C66.7062 174.037 64.5125 176.638 61.9938 178.75C56.3063 183.869 48.8312 186.875 40.625 186.875C28.7625 186.875 18.4438 180.537 12.8375 171.112C9.83126 166.237 8.125 160.469 8.125 154.375C8.125 144.138 12.8375 134.956 20.3125 129.025C25.9187 124.556 32.9875 121.875 40.625 121.875C58.5813 121.875 73.125 136.419 73.125 154.375Z" stroke="#F474E1" stroke-width="3" stroke-miterlimit="10" stroke-linecap="round" stroke-linejoin="round"/>
<path d="M49.3187 162.825L32.0938 145.681" stroke="#F474E1" stroke-width="3" stroke-miterlimit="10" stroke-linecap="round" stroke-linejoin="round"/>
<path d="M49.1547 145.925L31.9297 163.069" stroke="#F474E1" stroke-width="3" stroke-miterlimit="10" stroke-linecap="round" stroke-linejoin="round"/>
</svg>
